<svg width="16" height="16" viewBox="0 0 16 16" fill="none" xmlns="http://www.w3.org/2000/svg">
<g clip-path="url(#clip0_122_63)">
<path d="M5.99992 11.3333L2.66659 14.6667M9.99992 11.3333L13.3333 14.6667M7.99992 1.33333V2.66666M7.99992 14.6667V11.3333M3.46659 11.3333H12.5333C13.28 11.3333 13.6534 11.3333 13.9386 11.188C14.1895 11.0602 14.3934 10.8562 14.5213 10.6053C14.6666 10.3201 14.6666 9.94673 14.6666 9.2V4.79999C14.6666 4.05326 14.6666 3.67989 14.5213 3.39467C14.3934 3.14379 14.1895 2.93982 13.9386 2.81199C13.6534 2.66666 13.28 2.66666 12.5333 2.66666H3.46659C2.71985 2.66666 2.34648 2.66666 2.06126 2.81199C1.81038 2.93982 1.60641 3.14379 1.47858 3.39467C1.33325 3.67989 1.33325 4.05326 1.33325 4.79999V9.2C1.33325 9.94673 1.33325 10.3201 1.47858 10.6053C1.60641 10.8562 1.81038 11.0602 2.06126 11.188C2.34648 11.3333 2.71985 11.3333 3.46659 11.3333Z" stroke="#9BA5B7" stroke-width="2" stroke-linecap="round" stroke-linejoin="round"/>
</g>
<defs>
<clipPath id="clip0_122_63">
<rect width="16" height="16" fill="white"/>
</clipPath>
</defs>
</svg>
