<svg width="16" height="12" viewBox="0 0 16 12" fill="none" xmlns="http://www.w3.org/2000/svg">
<path d="M15.9033 5.54375C14.397 2.23719 11.4147 0 8 0C4.58527 0 1.60221 2.23875 0.0966517 5.54406C0.0331076 5.68547 0 5.8417 0 6.00016C0 6.15861 0.0331076 6.31484 0.0966517 6.45625C1.60304 9.76281 4.58527 12 8 12C11.4147 12 14.3978 9.76125 15.9033 6.45594C15.9669 6.31453 16 6.1583 16 5.99984C16 5.84139 15.9669 5.68516 15.9033 5.54375ZM8 10.5C7.20887 10.5 6.43551 10.2361 5.77771 9.74161C5.11992 9.24715 4.60723 8.54434 4.30447 7.72208C4.00172 6.89981 3.92251 5.99501 4.07685 5.12209C4.23119 4.24918 4.61216 3.44736 5.17157 2.81802C5.73098 2.18868 6.44371 1.7601 7.21964 1.58647C7.99556 1.41283 8.79983 1.50195 9.53074 1.84254C10.2616 2.18314 10.8864 2.75991 11.3259 3.49993C11.7654 4.23995 12 5.10998 12 6C12.0003 6.59103 11.897 7.17632 11.696 7.72242C11.4951 8.26851 11.2005 8.7647 10.829 9.18262C10.4575 9.60054 10.0165 9.932 9.53104 10.158C9.04562 10.3841 8.52536 10.5003 8 10.5ZM8 3C7.76198 3.00374 7.5255 3.04358 7.29694 3.11844C7.48534 3.40646 7.57574 3.7609 7.55177 4.11748C7.52779 4.47406 7.39101 4.80917 7.16625 5.06203C6.94148 5.31489 6.64361 5.46876 6.32665 5.49574C6.00969 5.52271 5.69463 5.42101 5.43861 5.20906C5.29282 5.81331 5.31914 6.45377 5.51385 7.04031C5.70857 7.62685 6.06188 8.12993 6.52406 8.47874C6.98623 8.82754 7.534 9.00452 8.09027 8.98475C8.64653 8.96498 9.18328 8.74946 9.62497 8.36853C10.0667 7.9876 10.391 7.46044 10.5525 6.86125C10.7139 6.26205 10.7042 5.62099 10.5248 5.0283C10.3454 4.43562 10.0053 3.92114 9.5524 3.55728C9.09948 3.19343 8.55654 2.99853 8 3Z" fill="#696CFF"/>
</svg>
