<svg width="16" height="17" viewBox="0 0 16 17" fill="none" xmlns="http://www.w3.org/2000/svg">
<g clip-path="url(#clip0_3_1652)">
<path d="M7.33301 3.16666H4.53301C3.4129 3.16666 2.85285 3.16666 2.42503 3.38464C2.0487 3.57639 1.74274 3.88235 1.55099 4.25867C1.33301 4.6865 1.33301 5.24655 1.33301 6.36666V11.9667C1.33301 13.0868 1.33301 13.6468 1.55099 14.0746C1.74274 14.451 2.0487 14.7569 2.42503 14.9487C2.85285 15.1667 3.4129 15.1667 4.53301 15.1667H10.133C11.2531 15.1667 11.8132 15.1667 12.241 14.9487C12.6173 14.7569 12.9233 14.451 13.115 14.0746C13.333 13.6468 13.333 13.0868 13.333 11.9667V9.16666M5.33299 11.1667H6.44935C6.77547 11.1667 6.93853 11.1667 7.09198 11.1298C7.22803 11.0972 7.35809 11.0433 7.47739 10.9702C7.61194 10.8877 7.72724 10.7724 7.95785 10.5418L14.333 4.16666C14.8853 3.61437 14.8853 2.71894 14.333 2.16666C13.7807 1.61437 12.8853 1.61437 12.333 2.16665L5.95783 8.54182C5.72723 8.77242 5.61193 8.88772 5.52947 9.02228C5.45637 9.14157 5.40249 9.27163 5.36983 9.40768C5.33299 9.56113 5.33299 9.72419 5.33299 10.0503V11.1667Z" stroke="url(#paint0_linear_3_1652)" stroke-width="2" stroke-linecap="round" stroke-linejoin="round"/>
</g>
<defs>
<linearGradient id="paint0_linear_3_1652" x1="4.68656" y1="15.1667" x2="11.3937" y2="1.75244" gradientUnits="userSpaceOnUse">
<stop stop-color="#53389E"/>
<stop offset="1" stop-color="#6941C6"/>
</linearGradient>
<clipPath id="clip0_3_1652">
<rect width="16" height="16" fill="white" transform="translate(0 0.5)"/>
</clipPath>
</defs>
</svg>
