<svg width="17" height="17" viewBox="0 0 17 17" fill="none" xmlns="http://www.w3.org/2000/svg">
<path d="M8.49998 10.5C6.3866 10.5 4.50718 11.5204 3.31064 13.104C3.05312 13.4448 2.92436 13.6152 2.92857 13.8455C2.93182 14.0235 3.04356 14.2479 3.18356 14.3578C3.36477 14.5 3.61589 14.5 4.11814 14.5H12.8818C13.3841 14.5 13.6352 14.5 13.8164 14.3578C13.9564 14.2479 14.0681 14.0235 14.0714 13.8455C14.0756 13.6152 13.9468 13.4448 13.6893 13.104C12.4928 11.5204 10.6134 10.5 8.49998 10.5Z" stroke="#0693E3" stroke-width="2" stroke-linecap="round" stroke-linejoin="round"/>
<path d="M8.49998 8.5C10.1568 8.5 11.5 7.15685 11.5 5.5C11.5 3.84315 10.1568 2.5 8.49998 2.5C6.84313 2.5 5.49998 3.84315 5.49998 5.5C5.49998 7.15685 6.84313 8.5 8.49998 8.5Z" stroke="#0693E3" stroke-width="2" stroke-linecap="round" stroke-linejoin="round"/>
</svg>
