<svg width="17" height="17" viewBox="0 0 17 17" fill="none" xmlns="http://www.w3.org/2000/svg">
<g clip-path="url(#clip0_122_266)">
<path d="M10.5002 13.1667C10.5002 14.2712 9.60482 15.1667 8.50025 15.1667C7.39568 15.1667 6.50025 14.2712 6.50025 13.1667M9.69792 4.65905C9.98825 4.3591 10.1669 3.95042 10.1669 3.50001C10.1669 2.57954 9.42072 1.83334 8.50025 1.83334C7.57977 1.83334 6.83358 2.57954 6.83358 3.50001C6.83358 3.95042 7.01225 4.3591 7.30258 4.65905M2.19813 6.04865C2.18856 5.08108 2.71022 4.17755 3.55294 3.70205M14.8024 6.04865C14.8119 5.08108 14.2903 4.17755 13.4476 3.70205M12.5002 7.96668C12.5002 7.04726 12.0788 6.1655 11.3287 5.51537C10.5785 4.86525 9.56111 4.50001 8.50025 4.50001C7.43938 4.50001 6.42197 4.86525 5.67182 5.51537C4.92167 6.1655 4.50025 7.04726 4.50025 7.96668C4.50025 9.48788 4.123 10.6004 3.65229 11.3965C3.11581 12.3038 2.84756 12.7574 2.85816 12.8658C2.87028 12.9898 2.89259 13.0289 2.99314 13.1024C3.08103 13.1667 3.52259 13.1667 4.40571 13.1667H12.5948C13.4779 13.1667 13.9195 13.1667 14.0074 13.1024C14.1079 13.0289 14.1302 12.9898 14.1423 12.8658C14.1529 12.7574 13.8847 12.3038 13.3482 11.3965C12.8775 10.6004 12.5002 9.48788 12.5002 7.96668Z" stroke="#9BA5B7" stroke-width="2" stroke-linecap="round" stroke-linejoin="round"/>
</g>
<defs>
<clipPath id="clip0_122_266">
<rect width="16" height="16" fill="white" transform="translate(0.5 0.5)"/>
</clipPath>
</defs>
</svg>
