<svg width="17" height="17" viewBox="0 0 17 17" fill="none" xmlns="http://www.w3.org/2000/svg">
<g clip-path="url(#clip0_122_108)">
<path d="M15.1668 5.83334V8.5M7.33349 4.16667H5.0335C3.91339 4.16667 3.35334 4.16667 2.92551 4.38466C2.54919 4.5764 2.24323 4.88236 2.05148 5.25869C1.8335 5.68651 1.8335 6.24656 1.8335 7.36667L1.8335 8.16667C1.8335 8.78792 1.8335 9.09855 1.93499 9.34358C2.07032 9.67028 2.32988 9.92985 2.65658 10.0652C2.90161 10.1667 3.21224 10.1667 3.8335 10.1667V13C3.8335 13.1548 3.8335 13.2322 3.83992 13.2974C3.90227 13.9304 4.40311 14.4312 5.03614 14.4936C5.10133 14.5 5.17872 14.5 5.3335 14.5C5.48828 14.5 5.56567 14.5 5.63085 14.4936C6.26389 14.4312 6.76473 13.9304 6.82708 13.2974C6.8335 13.2322 6.8335 13.1548 6.8335 13V10.1667H7.3335C8.51112 10.1667 9.95166 10.7979 11.063 11.4038C11.7114 11.7572 12.0356 11.9339 12.2479 11.9079C12.4448 11.8838 12.5936 11.7954 12.709 11.6341C12.8335 11.4601 12.8335 11.112 12.8335 10.4158V3.91753C12.8335 3.22133 12.8335 2.87324 12.709 2.69926C12.5936 2.53794 12.4448 2.44954 12.2479 2.42542C12.0356 2.39942 11.7114 2.57613 11.063 2.92957C9.95166 3.53541 8.51111 4.16667 7.33349 4.16667Z" stroke="#AFC816" stroke-width="2" stroke-linecap="round" stroke-linejoin="round"/>
</g>
<defs>
<clipPath id="clip0_122_108">
<rect width="16" height="16" fill="white" transform="translate(0.5 0.5)"/>
</clipPath>
</defs>
</svg>
